<svg width="22" height="19" viewBox="0 0 22 19" fill="none" xmlns="http://www.w3.org/2000/svg">
<path d="M12.8412 18.2025L21.25 9.75003L12.8413 1.29753C12.7653 1.1978 12.6688 1.11555 12.5583 1.05636C12.4478 0.997159 12.3259 0.962393 12.2008 0.954412C12.0757 0.94643 11.9504 0.96542 11.8333 1.01009C11.7161 1.05477 11.61 1.12409 11.522 1.21335C11.434 1.30262 11.3662 1.40975 11.3232 1.5275C11.2802 1.64524 11.263 1.77085 11.2728 1.89582C11.2825 2.02079 11.319 2.1422 11.3798 2.25183C11.4406 2.36147 11.5242 2.45677 11.625 2.53128L17.9162 8.87503L1.1775 8.87503C0.945435 8.87503 0.722876 8.96721 0.558782 9.13131C0.394687 9.2954 0.302499 9.51796 0.302499 9.75003C0.302499 9.98209 0.394687 10.2046 0.558782 10.3687C0.722876 10.5328 0.945435 10.625 1.1775 10.625L17.9162 10.625L11.625 16.9688C11.4614 17.1335 11.3699 17.3566 11.3708 17.5887C11.3716 17.8209 11.4646 18.0433 11.6294 18.2069C11.7941 18.3705 12.0171 18.462 12.2493 18.4611C12.4815 18.4603 12.7039 18.3673 12.8675 18.2025L12.8412 18.2025Z" fill="#025944"/>
</svg>
