<svg width="61" height="60" viewBox="0 0 61 60" fill="none"
	xmlns="http://www.w3.org/2000/svg">
	<rect width="60" height="60" fill="white"/>
	<path d="M2.34215 51.3447C0.38953 53.2973 0.38953 56.4632 2.34215 58.4158C4.29477 60.3684 7.4606 60.3684 9.41322 58.4158L2.34215 51.3447ZM60.3752 5.38278C60.3752 2.62135 58.1366 0.382775 55.3752 0.382775H10.3752C7.61374 0.382775 5.37516 2.62135 5.37516 5.38278C5.37516 8.1442 7.61374 10.3828 10.3752 10.3828H50.3752V50.3828C50.3752 53.1442 52.6137 55.3828 55.3752 55.3828C58.1366 55.3828 60.3752 53.1442 60.3752 50.3828V5.38278ZM9.41322 58.4158L58.9107 8.91831L51.8396 1.84724L2.34215 51.3447L9.41322 58.4158Z" fill="#025944"/>
</svg>
