<svg width="121" height="105" viewBox="0 0 121 105" fill="none" xmlns="http://www.w3.org/2000/svg">
<path d="M28.0763 47.5402C30.3683 47.5402 32.2883 46.6868 33.8363 45.0068C35.3843 43.3135 36.1643 41.1668 36.1643 38.5935V25.6602H32.5643V38.2868C32.5643 39.9268 32.1443 41.2202 31.3043 42.1535C30.4643 43.0868 29.3843 43.5535 28.0763 43.5535C26.7683 43.5535 25.6883 43.0868 24.8483 42.1535C24.0083 41.2202 23.5883 39.9268 23.5883 38.2868V25.6602H19.9883V38.5935C19.9883 41.1802 20.7683 43.3135 22.3163 45.0068C23.8643 46.6868 25.7843 47.5402 28.0763 47.5402Z" fill="white"/>
<path d="M35.4079 13.7268H44.4679V22.5668H48.0679V1.00684H44.4679V9.78017H35.4079V1.00684H31.7959V22.5668H35.4079V13.7268Z" fill="white"/>
<path d="M13.16 34.4205H4.1V25.6338H0.5V47.1938H4.1V38.3538H13.16V47.1938H16.772V25.6338H13.16V34.4205Z" fill="white"/>
<path d="M60.0919 23.1136C62.0359 23.1136 63.8239 22.5536 65.4679 21.4336C67.1119 20.3136 68.4079 18.8069 69.3679 16.9136C70.3159 15.0202 70.7959 12.9802 70.7959 10.8069C70.7959 7.80689 69.8959 5.32689 68.0839 3.35355C66.2719 1.38022 64.0159 0.393555 61.3159 0.393555C59.3959 0.393555 57.6079 0.940221 55.9639 2.03355C54.3199 3.12689 53.0239 4.62022 52.0879 6.50022C51.1519 8.38022 50.6719 10.4202 50.6719 12.6469C50.6719 15.6469 51.5719 18.1402 53.3719 20.1269C55.1719 22.1136 57.4159 23.1136 60.0919 23.1136ZM56.3239 6.76689C57.6919 5.19355 59.3479 4.39355 61.2799 4.39355C62.9839 4.39355 64.3879 5.00689 65.4919 6.23355C66.5959 7.46022 67.1599 9.02022 67.1599 10.9269C67.1599 13.1669 66.4759 15.0869 65.1079 16.7002C63.7399 18.3136 62.0839 19.1136 60.1519 19.1136C58.4479 19.1136 57.0439 18.5002 55.9399 17.2736C54.8359 16.0469 54.2719 14.4602 54.2719 12.5269C54.2719 10.2602 54.9559 8.34022 56.3239 6.76689Z" fill="white"/>
<path d="M77.0004 16.0334H81.5124C83.5284 16.0334 85.2444 15.3 86.6604 13.8334C88.0764 12.3667 88.7844 10.58 88.7844 8.46002C88.7844 6.34002 88.1244 4.55335 86.7924 3.14002C85.4604 1.72669 83.7924 1.02002 81.8004 1.02002H73.4004V22.5667H77.0004V16.0334ZM77.0004 12.0867V4.94002H81.5124C82.5684 4.94002 83.4324 5.27335 84.1284 5.94002C84.8244 6.60669 85.1724 7.44669 85.1724 8.44669C85.1724 9.44669 84.8244 10.34 84.1164 11.0334C83.4084 11.7267 82.5444 12.0734 81.5124 12.0734H77.0004V12.0867Z" fill="white"/>
<path d="M94.2325 40.8471L85.7245 25.6471H81.5605V47.1938H85.1725V31.8871L93.6805 47.1938H97.8325V25.6338H94.2325V40.8471Z" fill="white"/>
<path d="M78.3441 25.6338H74.7441V47.1805H78.3441V25.6338Z" fill="white"/>
<path d="M90.8355 60.9269C91.6155 60.4336 92.2155 59.7403 92.6595 58.8336C93.1035 57.9269 93.3195 56.9403 93.3195 55.8736C93.3195 54.2469 92.7915 52.9136 91.7235 51.8469C90.6555 50.7936 89.3235 50.2603 87.7155 50.2603H77.9355V71.8336H87.9915C89.5755 71.8336 90.9075 71.2869 91.9755 70.1936C93.0435 69.1003 93.5835 67.7402 93.5835 66.1136C93.5835 64.9802 93.3435 63.9669 92.8515 63.0469C92.3835 62.1269 91.6995 61.4203 90.8355 60.9269ZM81.5476 54.2203H87.3915C88.0755 54.2203 88.6395 54.4336 89.0715 54.8469C89.5035 55.2736 89.7195 55.8069 89.7195 56.4603C89.7195 57.1936 89.5035 57.8203 89.0835 58.3403C88.6635 58.8603 88.1355 59.1136 87.4995 59.1136H81.5355V54.2203H81.5476ZM89.3355 67.2203C88.8915 67.6603 88.3395 67.8869 87.6795 67.8869H81.5595V62.9269H87.5235C88.2315 62.9269 88.8195 63.1803 89.2995 63.6869C89.7795 64.1936 90.0195 64.8202 90.0195 65.5802C90.0075 66.2336 89.7795 66.7803 89.3355 67.2203Z" fill="white"/>
<path d="M120.416 34.8734H109.436V38.4734H116.552C116.288 40.0334 115.604 41.3 114.476 42.2734C113.348 43.2467 112.016 43.74 110.492 43.74C108.716 43.74 107.204 43.0467 105.956 41.66C104.708 40.2734 104.084 38.5134 104.084 36.38C104.084 34.2467 104.708 32.4867 105.956 31.1C107.204 29.7134 108.716 29.02 110.492 29.02C111.728 29.02 112.856 29.38 113.876 30.0867C114.896 30.7934 115.664 31.78 116.204 33.0334L119.42 31.18C118.604 29.2734 117.404 27.7667 115.808 26.6734C114.212 25.58 112.448 25.02 110.504 25.02C109.136 25.02 107.84 25.3 106.628 25.8734C105.404 26.4334 104.348 27.2067 103.436 28.1934C102.536 29.18 101.816 30.38 101.288 31.8067C100.76 33.2334 100.496 34.7534 100.496 36.38C100.496 38.0067 100.76 39.5267 101.288 40.9534C101.816 42.38 102.536 43.58 103.436 44.5667C104.336 45.5534 105.404 46.3267 106.628 46.8867C107.852 47.4467 109.136 47.74 110.504 47.74C112.328 47.74 114.008 47.2734 115.532 46.34C117.056 45.4067 118.268 44.1 119.156 42.4334C120.056 40.7667 120.5 38.8867 120.5 36.82C120.5 35.9534 120.476 35.3134 120.416 34.8734Z" fill="white"/>
<path d="M71.1326 62.9001C71.1326 64.5401 70.7126 65.8334 69.8726 66.7668C69.0326 67.7001 67.9526 68.1668 66.6446 68.1668C65.3366 68.1668 64.2566 67.7001 63.4166 66.7668C62.5766 65.8334 62.1566 64.5401 62.1566 62.9001V50.2734H58.5566V63.2068C58.5566 65.7934 59.3366 67.9268 60.8846 69.6201C62.4326 71.3134 64.3526 72.1668 66.6446 72.1668C68.9366 72.1668 70.8566 71.3268 72.4046 69.6201C73.9646 67.9268 74.7326 65.7801 74.7326 63.2068V50.2734H71.1326V62.9001Z" fill="white"/>
<path d="M35.5641 67.1402C34.4961 67.9668 33.2841 68.3801 31.9401 68.3801C30.1281 68.3801 28.6041 67.6868 27.3561 66.2868C26.1081 64.8868 25.4841 63.1402 25.4841 61.0202C25.4841 58.9002 26.1081 57.1535 27.3561 55.7535C28.6041 54.3535 30.1281 53.6602 31.9401 53.6602C33.2481 53.6602 34.4361 54.0468 35.4921 54.8335C36.5481 55.6202 37.3401 56.7002 37.8681 58.0735L41.4681 56.6202C40.6041 54.4602 39.3081 52.7668 37.6161 51.5268C35.9121 50.2868 34.0281 49.6602 31.9641 49.6602C30.0921 49.6602 28.3881 50.1535 26.8521 51.1402C25.3041 52.1268 24.0921 53.4868 23.2041 55.2202C22.3161 56.9535 21.8721 58.8868 21.8721 61.0202C21.8721 63.1535 22.3161 65.0868 23.2041 66.8202C24.0921 68.5535 25.3041 69.9135 26.8521 70.9002C28.4001 71.8868 30.1041 72.3801 31.9641 72.3801C34.0881 72.3801 36.0201 71.7268 37.7361 70.4202C39.4641 69.1135 40.7481 67.3535 41.6001 65.1135L37.9761 63.7002C37.4361 65.1535 36.6441 66.3002 35.5641 67.1402Z" fill="white"/>
<path d="M49.9995 50.2734H46.3635L42.8955 71.8334H56.5635L57.1995 67.9134H47.1675L49.9995 50.2734Z" fill="white"/>
<path d="M62.804 47.1938H64.328H66.404H69.428V43.2471H66.404V29.5805H72.308V25.6338H58.004H55.76H54.38L51.908 41.2871L46.004 25.6338H41.66L38.252 47.1938H41.912L44.372 31.4605L50.252 47.1938H54.596L57.392 29.5805H62.804V47.1938Z" fill="white"/>
<path d="M34.292 95.3002V87.7935H35.192V89.0202H35.144C35.276 88.6069 35.492 88.2869 35.804 88.0469C36.116 87.8069 36.5 87.7002 36.932 87.7002C37.388 87.7002 37.772 87.8202 38.108 88.0469C38.444 88.2735 38.696 88.6069 38.888 89.0335C39.068 89.4602 39.164 89.9535 39.164 90.5402C39.164 91.1269 39.068 91.6202 38.888 92.0469C38.708 92.4735 38.456 92.8069 38.12 93.0469C37.784 93.2869 37.388 93.3935 36.932 93.3935C36.512 93.3935 36.14 93.2735 35.84 93.0469C35.54 92.8202 35.312 92.5002 35.18 92.1269H35.24V95.3002H34.292ZM36.728 92.5402C37.184 92.5402 37.544 92.3669 37.808 92.0069C38.072 91.6602 38.204 91.1669 38.204 90.5269C38.204 89.8869 38.072 89.4069 37.808 89.0602C37.544 88.7135 37.184 88.5402 36.728 88.5402C36.272 88.5402 35.912 88.7135 35.636 89.0602C35.372 89.4069 35.228 89.9002 35.228 90.5269C35.228 91.1535 35.36 91.6602 35.636 92.0069C35.9 92.3535 36.272 92.5402 36.728 92.5402Z" fill="white"/>
<path d="M42.9437 93.3802C42.3917 93.3802 41.9237 93.2735 41.5277 93.0335C41.1317 92.7935 40.8317 92.4735 40.6157 92.0602C40.3997 91.6335 40.3037 91.1269 40.3037 90.5402C40.3037 89.9535 40.3997 89.4869 40.6037 89.0602C40.8077 88.6335 41.0957 88.3002 41.4557 88.0602C41.8277 87.8202 42.2477 87.7002 42.7397 87.7002C43.2317 87.7002 43.6157 87.8069 43.9397 88.0335C44.2637 88.2602 44.5277 88.5802 44.7077 88.9802C44.8877 89.3935 44.9717 89.8735 44.9717 90.4469V90.8069H41.0357V90.1135H44.3237L44.1557 90.3002C44.1557 89.7135 44.0357 89.2602 43.7957 88.9402C43.5557 88.6335 43.2077 88.4735 42.7637 88.4735C42.4517 88.4735 42.1757 88.5535 41.9477 88.7135C41.7197 88.8735 41.5397 89.1002 41.4077 89.3935C41.2877 89.6869 41.2277 90.0335 41.2277 90.4335V90.5269C41.2277 90.9802 41.2997 91.3402 41.4317 91.6335C41.5637 91.9269 41.7677 92.1535 42.0317 92.3002C42.2957 92.4602 42.6077 92.5269 42.9797 92.5269C43.2677 92.5269 43.5437 92.4869 43.8197 92.3935C44.0957 92.3002 44.3597 92.1535 44.5997 91.9269L44.9117 92.6735C44.6717 92.9002 44.3717 93.0735 44.0237 93.2069C43.6397 93.3269 43.2917 93.3802 42.9437 93.3802Z" fill="white"/>
<path d="M48.5475 93.3802C48.0435 93.3802 47.5995 93.2602 47.2275 93.0335C46.8555 92.7935 46.5675 92.4602 46.3635 92.0335C46.1595 91.6069 46.0635 91.1002 46.0635 90.5269C46.0635 89.9535 46.1595 89.4469 46.3635 89.0202C46.5675 88.5935 46.8555 88.2735 47.2275 88.0469C47.5995 87.8202 48.0435 87.7002 48.5475 87.7002C48.8715 87.7002 49.1955 87.7669 49.4955 87.8869C49.7955 88.0069 50.0595 88.1802 50.2515 88.3802L49.9275 89.1535C49.7355 88.9669 49.5315 88.8202 49.3035 88.7269C49.0755 88.6202 48.8475 88.5802 48.6195 88.5802C48.1155 88.5802 47.7195 88.7535 47.4435 89.0869C47.1675 89.4202 47.0235 89.9135 47.0235 90.5402C47.0235 91.1669 47.1675 91.6469 47.4435 92.0069C47.7195 92.3535 48.1155 92.5269 48.6195 92.5269C48.8355 92.5269 49.0515 92.4869 49.2915 92.3935C49.5315 92.3002 49.7355 92.1535 49.9155 91.9669L50.2395 92.7402C50.0475 92.9535 49.7955 93.1135 49.4835 93.2335C49.1835 93.3269 48.8715 93.3802 48.5475 93.3802Z" fill="white"/>
<path d="M52.4357 93.2869V88.6469H50.6357V87.7803H55.2197V88.6469H53.4077V93.2869H52.4357Z" fill="white"/>
<path d="M58.2915 93.3802C57.7995 93.3802 57.3675 93.2602 56.9955 93.0335C56.6355 92.7935 56.3475 92.4735 56.1555 92.0335C55.9635 91.5935 55.8555 91.1002 55.8555 90.5269C55.8555 89.9535 55.9515 89.4469 56.1555 89.0335C56.3475 88.6069 56.6355 88.2735 56.9955 88.0469C57.3555 87.8202 57.7875 87.7002 58.2915 87.7002C58.7955 87.7002 59.2155 87.8202 59.5875 88.0469C59.9595 88.2735 60.2355 88.6069 60.4275 89.0335C60.6195 89.4602 60.7275 89.9535 60.7275 90.5269C60.7275 91.1002 60.6315 91.6069 60.4275 92.0335C60.2355 92.4602 59.9475 92.7935 59.5875 93.0335C59.2155 93.2735 58.7835 93.3802 58.2915 93.3802ZM58.2915 92.5269C58.7475 92.5269 59.1075 92.3535 59.3715 92.0069C59.6355 91.6602 59.7675 91.1669 59.7675 90.5402C59.7675 89.9135 59.6355 89.4202 59.3715 89.0735C59.1075 88.7269 58.7475 88.5535 58.2915 88.5535C57.8355 88.5535 57.4755 88.7269 57.2115 89.0735C56.9475 89.4202 56.8155 89.9002 56.8155 90.5402C56.8155 91.1802 56.9475 91.6602 57.2115 92.0069C57.4755 92.3535 57.8355 92.5269 58.2915 92.5269Z" fill="white"/>
<path d="M62.1553 93.2868V87.7935H63.1153V90.0468H64.0033L65.5993 87.7935H66.6433L64.7593 90.4735L64.5433 90.1668C64.7353 90.1935 64.9033 90.2468 65.0473 90.3268C65.1913 90.4068 65.3233 90.5401 65.4553 90.7001C65.5873 90.8601 65.7193 91.0735 65.8633 91.3401L66.9073 93.2735H65.8753L64.9873 91.6468C64.8913 91.4468 64.7833 91.3001 64.6873 91.1935C64.5913 91.0868 64.4713 91.0068 64.3513 90.9535C64.2313 90.9001 64.0633 90.8868 63.8833 90.8868H63.1273V93.2868H62.1553Z" fill="white"/>
<path d="M67.5557 93.4203L67.2197 92.5936C67.4597 92.4869 67.6517 92.3536 67.8077 92.1803C67.9637 92.0069 68.0837 91.8069 68.1797 91.5403C68.2757 91.2869 68.3357 90.9669 68.3717 90.6069C68.4077 90.2336 68.4317 89.7936 68.4317 89.2736V87.7803H72.2117V93.2736H71.2397V88.6336H69.3197V89.2869C69.3197 89.9003 69.2957 90.4336 69.2237 90.9003C69.1637 91.3669 69.0677 91.7536 68.9357 92.0869C68.8037 92.4203 68.6237 92.6869 68.3957 92.9003C68.1557 93.1269 67.8797 93.3003 67.5557 93.4203Z" fill="white"/>
<path d="M74.455 95.3003L75.403 92.9136V93.5269L73.207 87.7803H74.239L75.871 92.3403H75.715L77.359 87.7803H78.355L75.463 95.3003H74.455Z" fill="white"/>
<path d="M81.5475 93.3802C81.0435 93.3802 80.6115 93.2602 80.2275 93.0202C79.8555 92.7802 79.5675 92.4335 79.3635 91.9668C79.1595 91.5002 79.0635 90.9268 79.0635 90.2602V89.4202C79.0635 89.0335 79.0875 88.6735 79.1475 88.3402C79.2075 88.0068 79.2915 87.7002 79.3995 87.4335C79.5195 87.1535 79.6755 86.9135 79.8675 86.6868C80.0595 86.4602 80.2995 86.2735 80.5755 86.1135C80.8515 85.9535 81.1755 85.8068 81.5595 85.7002L83.3355 85.1802L83.6235 86.0468L81.6195 86.6068C81.0675 86.7668 80.6595 87.0468 80.3715 87.4468C80.0955 87.8468 79.9515 88.3402 79.9515 88.9402V89.3268H79.8675C79.9515 89.0202 80.0715 88.7535 80.2515 88.5268C80.4315 88.3002 80.6355 88.1268 80.8875 88.0068C81.1395 87.8868 81.4275 87.8202 81.7515 87.8202C82.0755 87.8202 82.3755 87.8868 82.6395 88.0068C82.9035 88.1402 83.1435 88.3135 83.3355 88.5668C83.5275 88.8068 83.6835 89.1002 83.7915 89.4335C83.8995 89.7668 83.9595 90.1535 83.9595 90.5802C83.9595 91.1535 83.8635 91.6468 83.6475 92.0735C83.4435 92.5002 83.1555 92.8202 82.8075 93.0468C82.4715 93.2735 82.0395 93.3802 81.5475 93.3802ZM81.5235 92.5402C81.9915 92.5402 82.3515 92.3802 82.6155 92.0468C82.8795 91.7135 83.0115 91.2468 83.0115 90.6202C83.0115 89.9935 82.8795 89.5268 82.6155 89.1802C82.3515 88.8468 81.9915 88.6735 81.5235 88.6735C81.0555 88.6735 80.7075 88.8468 80.4435 89.1802C80.1795 89.5135 80.0475 89.9668 80.0475 90.5402C80.0475 91.1935 80.1795 91.7002 80.4435 92.0335C80.6955 92.3668 81.0555 92.5402 81.5235 92.5402Z" fill="white"/>
<path d="M15.9075 104.58C15.4035 104.58 14.9715 104.46 14.5995 104.234C14.2275 103.994 13.9395 103.66 13.7355 103.234C13.5315 102.807 13.4355 102.3 13.4355 101.727C13.4355 101.154 13.5315 100.647 13.7355 100.22C13.9395 99.7937 14.2275 99.4737 14.5995 99.2471C14.9715 99.0204 15.4155 98.9004 15.9075 98.9004C16.2315 98.9004 16.5555 98.9671 16.8555 99.0871C17.1555 99.2071 17.4195 99.3804 17.6115 99.5804L17.2875 100.354C17.0955 100.167 16.8915 100.02 16.6635 99.9271C16.4355 99.8204 16.2075 99.7804 15.9795 99.7804C15.4755 99.7804 15.0795 99.9537 14.8035 100.287C14.5275 100.62 14.3835 101.114 14.3835 101.74C14.3835 102.367 14.5275 102.847 14.8035 103.207C15.0795 103.554 15.4755 103.727 15.9795 103.727C16.1955 103.727 16.4115 103.687 16.6515 103.594C16.8795 103.5 17.0955 103.354 17.2755 103.167L17.5995 103.94C17.4075 104.154 17.1555 104.314 16.8435 104.434C16.5315 104.554 16.2315 104.58 15.9075 104.58Z" fill="white"/>
<path d="M21.0912 104.58C20.5392 104.58 20.0712 104.474 19.6752 104.234C19.2792 103.994 18.9792 103.674 18.7632 103.26C18.5472 102.834 18.4512 102.327 18.4512 101.74C18.4512 101.154 18.5472 100.687 18.7512 100.26C18.9552 99.8337 19.2432 99.5004 19.6032 99.2604C19.9752 99.0204 20.3952 98.9004 20.8872 98.9004C21.3792 98.9004 21.7632 99.0071 22.0872 99.2337C22.4112 99.4604 22.6752 99.7804 22.8552 100.18C23.0352 100.594 23.1192 101.074 23.1192 101.647V102.007H19.1832V101.3H22.4712L22.3032 101.487C22.3032 100.9 22.1832 100.447 21.9432 100.127C21.7032 99.8204 21.3552 99.6604 20.9112 99.6604C20.5992 99.6604 20.3232 99.7404 20.0952 99.9004C19.8672 100.06 19.6872 100.287 19.5672 100.58C19.4472 100.874 19.3752 101.22 19.3752 101.62V101.714C19.3752 102.167 19.4472 102.527 19.5792 102.82C19.7112 103.114 19.9152 103.34 20.1672 103.487C20.4312 103.647 20.7432 103.714 21.1152 103.714C21.4032 103.714 21.6792 103.674 21.9552 103.58C22.2312 103.487 22.4832 103.34 22.7352 103.114L23.0472 103.86C22.8072 104.087 22.5072 104.26 22.1592 104.394C21.7992 104.514 21.4512 104.58 21.0912 104.58Z" fill="white"/>
<path d="M24.2591 104.607L23.9111 103.78C24.1511 103.673 24.3431 103.54 24.4991 103.367C24.6551 103.193 24.7871 102.993 24.8711 102.727C24.9671 102.473 25.0271 102.153 25.0631 101.793C25.0991 101.42 25.1231 100.98 25.1231 100.46V98.9668H28.9031V104.46H27.9311V99.8201H26.0111V100.473C26.0111 101.087 25.9871 101.62 25.9151 102.087C25.8551 102.553 25.7591 102.94 25.6271 103.273C25.4951 103.607 25.3151 103.873 25.0871 104.087C24.8591 104.327 24.5831 104.487 24.2591 104.607Z" fill="white"/>
<path d="M32.9593 104.58C32.4073 104.58 31.9393 104.474 31.5433 104.234C31.1473 104.007 30.8473 103.674 30.6313 103.26C30.4153 102.834 30.3193 102.327 30.3193 101.74C30.3193 101.154 30.4153 100.687 30.6193 100.26C30.8233 99.8337 31.1113 99.5004 31.4713 99.2604C31.8433 99.0204 32.2633 98.9004 32.7553 98.9004C33.2473 98.9004 33.6313 99.0071 33.9553 99.2337C34.2793 99.4604 34.5433 99.7804 34.7233 100.18C34.9033 100.594 34.9873 101.074 34.9873 101.647V102.007H31.0513V101.3H34.3393L34.1713 101.487C34.1713 100.9 34.0513 100.447 33.8113 100.127C33.5713 99.8204 33.2233 99.6604 32.7793 99.6604C32.4673 99.6604 32.1913 99.7404 31.9633 99.9004C31.7353 100.06 31.5553 100.287 31.4233 100.58C31.3033 100.874 31.2433 101.22 31.2433 101.62V101.714C31.2433 102.167 31.3153 102.527 31.4473 102.82C31.5793 103.114 31.7833 103.34 32.0473 103.487C32.3113 103.647 32.6233 103.714 32.9953 103.714C33.2833 103.714 33.5593 103.674 33.8353 103.58C34.1113 103.487 34.3753 103.34 34.6153 103.114L34.9273 103.86C34.6873 104.087 34.3873 104.26 34.0393 104.394C33.6553 104.514 33.3073 104.58 32.9593 104.58Z" fill="white"/>
<path d="M36.3789 104.473V98.98H37.3389V101.233H38.2269L39.8349 98.98H40.8669L38.9829 101.66L38.7669 101.353C38.9589 101.38 39.1269 101.433 39.2709 101.513C39.4149 101.593 39.5469 101.727 39.6789 101.887C39.8109 102.047 39.9429 102.26 40.0869 102.527L41.1309 104.46H40.0989L39.2109 102.833C39.1149 102.633 39.0069 102.487 38.9109 102.38C38.8149 102.273 38.6949 102.193 38.5749 102.14C38.4549 102.087 38.2869 102.073 38.1069 102.073H37.3389V104.473H36.3789Z" fill="white"/>
<path d="M43.0881 104.473V99.8335H41.2881V98.9668H45.8601V99.8335H44.0481V104.473H43.0881Z" fill="white"/>
<path d="M46.8193 104.473V98.98H47.7073V103.3H47.5513L50.4553 98.98H51.3073V104.473H50.4193V100.14H50.5753L47.6713 104.473H46.8193Z" fill="white"/>
<path d="M53.0234 104.473V98.98H55.5914C55.9994 98.98 56.3354 99.0333 56.5994 99.1533C56.8634 99.26 57.0554 99.4333 57.1754 99.6466C57.2954 99.86 57.3554 100.127 57.3554 100.433C57.3554 100.74 57.2594 101.033 57.0674 101.26C56.8754 101.487 56.6234 101.633 56.3114 101.7V101.62C56.5634 101.647 56.7794 101.713 56.9714 101.833C57.1514 101.953 57.2954 102.113 57.3794 102.3C57.4754 102.487 57.5234 102.713 57.5234 102.953C57.5234 103.42 57.3674 103.793 57.0434 104.06C56.7194 104.327 56.2634 104.473 55.6754 104.473H53.0234ZM53.9354 101.327H55.5314C55.8314 101.327 56.0594 101.26 56.2274 101.113C56.3954 100.967 56.4794 100.767 56.4794 100.487C56.4794 100.207 56.3954 100.02 56.2274 99.8867C56.0594 99.7533 55.8314 99.6867 55.5314 99.6867H53.9354V101.327ZM53.9354 103.767H55.6154C55.9394 103.767 56.1914 103.7 56.3594 103.553C56.5394 103.407 56.6234 103.193 56.6234 102.913C56.6234 102.633 56.5394 102.407 56.3594 102.26C56.1794 102.113 55.9274 102.047 55.6154 102.047H53.9354V103.767Z" fill="white"/>
<path d="M58.9033 104.473V98.98H59.8633V101.22H62.4913V98.98H63.4513V104.473H62.4913V102.073H59.8633V104.473H58.9033Z" fill="white"/>
<path d="M67.3032 104.58C66.8112 104.58 66.3792 104.46 66.0072 104.234C65.6352 104.007 65.3592 103.674 65.1672 103.234C64.9632 102.807 64.8672 102.3 64.8672 101.727C64.8672 101.154 64.9632 100.647 65.1672 100.234C65.3712 99.8071 65.6472 99.4737 66.0072 99.2471C66.3672 99.0204 66.7992 98.9004 67.3032 98.9004C67.8072 98.9004 68.2272 99.0204 68.5992 99.2471C68.9592 99.4871 69.2472 99.8071 69.4392 100.234C69.6432 100.66 69.7392 101.154 69.7392 101.727C69.7392 102.3 69.6432 102.807 69.4392 103.234C69.2352 103.66 68.9592 103.994 68.5992 104.234C68.2392 104.46 67.8072 104.58 67.3032 104.58ZM67.3032 103.714C67.7592 103.714 68.1192 103.54 68.3832 103.194C68.6472 102.847 68.7792 102.354 68.7792 101.727C68.7792 101.1 68.6472 100.607 68.3832 100.26C68.1192 99.9137 67.7592 99.7404 67.3032 99.7404C66.8472 99.7404 66.4872 99.9137 66.2232 100.26C65.9592 100.607 65.8272 101.087 65.8272 101.727C65.8272 102.367 65.9592 102.847 66.2232 103.194C66.4872 103.54 66.8472 103.714 67.3032 103.714Z" fill="white"/>
<path d="M71.1797 104.473V98.98H74.7797V99.8466H72.1277V104.487H71.1797V104.473Z" fill="white"/>
<path d="M77.9712 104.58C77.4792 104.58 77.0472 104.46 76.6752 104.234C76.3032 104.007 76.0272 103.674 75.8352 103.234C75.6312 102.807 75.5352 102.3 75.5352 101.727C75.5352 101.154 75.6312 100.647 75.8352 100.234C76.0392 99.8071 76.3152 99.4737 76.6752 99.2471C77.0352 99.0204 77.4672 98.9004 77.9712 98.9004C78.4752 98.9004 78.8952 99.0204 79.2672 99.2471C79.6272 99.4871 79.9152 99.8071 80.1072 100.234C80.3112 100.66 80.4072 101.154 80.4072 101.727C80.4072 102.3 80.3112 102.807 80.1072 103.234C79.9032 103.66 79.6272 103.994 79.2672 104.234C78.8952 104.46 78.4632 104.58 77.9712 104.58ZM77.9712 103.714C78.4272 103.714 78.7872 103.54 79.0512 103.194C79.3152 102.847 79.4472 102.354 79.4472 101.727C79.4472 101.1 79.3152 100.607 79.0512 100.26C78.7872 99.9137 78.4272 99.7404 77.9712 99.7404C77.5152 99.7404 77.1552 99.9137 76.8912 100.26C76.6272 100.607 76.4952 101.087 76.4952 101.727C76.4952 102.367 76.6272 102.847 76.8912 103.194C77.1552 103.54 77.5152 103.714 77.9712 103.714Z" fill="white"/>
<path d="M84.5713 104.473V98.98H89.0593V104.473H88.0993V99.8333H85.5193V104.473H84.5713Z" fill="white"/>
<path d="M90.7754 104.473V98.98H91.6634V103.3H91.5074L94.4114 98.98H95.2634V104.473H94.3754V100.14H94.5314L91.6274 104.473H90.7754Z" fill="white"/>
<path d="M96.9795 104.473V98.98H99.5475C99.9555 98.98 100.291 99.0333 100.555 99.1533C100.819 99.2733 101.011 99.4333 101.131 99.6466C101.251 99.86 101.311 100.127 101.311 100.433C101.311 100.74 101.215 101.033 101.035 101.26C100.843 101.487 100.591 101.633 100.279 101.7V101.62C100.531 101.647 100.747 101.713 100.939 101.833C101.119 101.953 101.263 102.113 101.347 102.3C101.443 102.487 101.491 102.713 101.491 102.953C101.491 103.42 101.335 103.793 101.011 104.06C100.687 104.327 100.231 104.473 99.6435 104.473H96.9795ZM97.8795 101.327H99.4755C99.7755 101.327 100.003 101.26 100.171 101.113C100.339 100.967 100.423 100.767 100.423 100.487C100.423 100.207 100.339 100.02 100.171 99.8867C100.003 99.7533 99.7755 99.6867 99.4755 99.6867H97.8795V101.327ZM97.8795 103.767H99.5595C99.8835 103.767 100.135 103.7 100.303 103.553C100.483 103.407 100.567 103.193 100.567 102.913C100.567 102.633 100.483 102.407 100.303 102.26C100.123 102.113 99.8715 102.047 99.5595 102.047H97.8795V103.767Z" fill="white"/>
<path d="M104.48 104.58C104.132 104.58 103.82 104.5 103.544 104.354C103.268 104.207 103.052 104.007 102.884 103.754C102.728 103.5 102.644 103.22 102.644 102.9C102.644 102.487 102.74 102.167 102.944 101.927C103.148 101.687 103.46 101.514 103.904 101.407C104.336 101.3 104.912 101.26 105.62 101.26H106.22V101.94H105.656C105.284 101.94 104.96 101.954 104.696 101.98C104.432 102.007 104.216 102.06 104.06 102.127C103.904 102.194 103.784 102.287 103.712 102.407C103.64 102.527 103.604 102.674 103.604 102.834C103.604 103.127 103.7 103.354 103.892 103.527C104.084 103.7 104.336 103.78 104.66 103.78C104.924 103.78 105.164 103.714 105.38 103.58C105.596 103.447 105.764 103.247 105.884 103.02C106.004 102.78 106.064 102.514 106.064 102.22V100.94C106.064 100.514 105.968 100.194 105.788 100.007C105.596 99.8202 105.308 99.7269 104.9 99.7269C104.612 99.7269 104.324 99.7669 104.036 99.8602C103.748 99.9535 103.46 100.1 103.16 100.3L102.86 99.5402C103.052 99.3935 103.256 99.2735 103.496 99.1802C103.736 99.0869 103.976 99.0069 104.228 98.9535C104.48 98.9002 104.732 98.8735 104.972 98.8735C105.416 98.8735 105.788 98.9535 106.088 99.1002C106.388 99.2602 106.616 99.4869 106.772 99.8069C106.928 100.127 107 100.54 107 101.047V104.474H106.136V103.247H106.172C106.1 103.5 105.992 103.727 105.836 103.927C105.68 104.127 105.488 104.287 105.26 104.394C105.032 104.527 104.768 104.58 104.48 104.58Z" fill="white"/>
</svg>
