<svg width="340" height="57" viewBox="0 0 340 57" fill="none" xmlns="http://www.w3.org/2000/svg">
<path d="M128.867 45.9506H120.519V7.33532H103.996V45.9506H96.2559V0H153.231V45.9506H145.086V7.33532H128.867V45.9506Z" fill="#010101"/>
<path d="M167.425 27.2V38.6008H192.209V45.9362H159.265V0H192.006V27.2H167.425ZM167.425 19.6621H184.569V7.33532H167.425V19.6621Z" fill="#010101"/>
<path d="M223.069 45.9506V7.33532H206.026V45.9506H198.271V0H231.215V45.9506H223.069Z" fill="#010101"/>
<path d="M267.515 45.9506H248.128V7.33532H236.466V0H248.128H255.868H267.515V7.33532H255.868V38.6153H267.515V45.9506Z" fill="#010101"/>
<path d="M273.259 0H306.203V45.9362H273.259V0ZM298.564 7.33532H281.419V38.6008H298.564V7.33532Z" fill="#010101"/>
<path d="M332.259 7.33532H320.41V45.9506H312.25V0H340V15.7413H332.259V7.33532Z" fill="#010101"/>
<path d="M41.7405 15.5242V14.7863H37.5302C41.3353 8.10206 44.4026 3.83398 46.732 1.95313C49.0613 0.0578089 50.5949 0.231425 51.3762 1.05611C53.5898 3.42887 48.8877 3.63142 48.8877 5.87398C48.8877 8.82547 52.5626 8.68079 53.9081 5.97526C54.5447 4.6876 54.4724 3.11057 53.6766 1.90972C53.0545 0.969298 51.8826 0.0144043 49.7124 0.0144043C44.5039 0.0144043 39.0928 4.99142 32.64 14.7863H27.5473V15.5242H32.1192C26.6502 24.017 15.8426 45.1114 9.50554 52.085C5.42554 56.5701 1.36 56.628 0.332766 54.9063L0 56.2374C1.76511 56.5846 8.63745 58.6246 20.2987 43.028C23.4094 38.8612 37.0094 15.5242 37.0094 15.5242H41.7405Z" fill="#010101"/>
<path d="M76.0736 22.3388C77.7085 21.2971 80.1102 19.9227 83.2643 18.1865C87.4745 15.8137 89.5723 14.0052 89.5723 12.7754C89.5723 11.5457 87.1128 11.2852 83.4089 12.8188C80.4285 14.0486 76.6813 16.7831 75.1766 21.7601C73.2957 22.9465 71.3281 24.0461 68.6659 26.0861L72.8762 19.2427C74.3953 16.7108 74.757 14.772 73.397 13.7159C72.8183 13.2674 71.1689 12.4427 67.8991 14.0197C66.6115 14.6418 65.3817 15.5678 64.1953 16.7976L64.5425 16.9712C70.5468 11.9074 69.5774 16.2623 66.6404 20.6605L63.5298 25.5942C61.7502 28.0248 53.0838 38.9916 45.5315 38.9916C41.5817 38.9916 35.9102 36.8503 40.5544 27.3448C40.5544 27.3448 57.6268 26.8963 60.7519 19.2282C61.4898 17.4052 60.8821 15.2495 59.1893 14.2512C58.1476 13.6291 56.5417 13.1661 54.1255 13.1661C45.1408 13.1661 39.3391 19.0112 36.7204 23.3661C27.6634 38.4708 44.2727 46.5584 58.5817 33.4359L54.7621 39.5125H63.2259V39.3678C61.6923 39.2086 61.62 37.6461 62.5459 36.0257L67.0744 28.6759C68.9408 26.9397 74.9451 23.0333 74.9451 23.0333C74.9451 23.0333 74.2651 28.8205 81.8464 28.8205C83.3511 28.8205 87.2864 28.3142 89.4566 25.6376H88.357C84.8847 29.2401 74.511 28.5167 76.0591 22.3678M47.5425 17.8103C57.4098 8.39161 64.7306 17.3763 49.6983 24.755C45.8497 26.6359 40.9595 26.5057 40.9595 26.5057C42.6378 23.2359 44.7791 20.458 47.5425 17.8103Z" fill="#010101"/>
</svg>
