<svg width="200" height="74" viewBox="0 0 200 74" fill="none" xmlns="http://www.w3.org/2000/svg">
<path d="M22.2399 0.199951L0 20.0172V73.7999H15.2282V48.2509C15.2282 41.7306 20.3717 36.4413 26.7175 36.4413C33.0634 36.4413 38.2069 41.7281 38.2069 48.2509V73.7999H53.4351L75.6773 53.9827V0.199951H22.2446H22.2399Z" fill="#E74011"/>
<path d="M111.959 24.1062H117.086L120.994 15.1626L122.288 11.4429H122.559L122.328 13.3221V24.1062H125.952V8.93494H120.646L116.408 18.8944L115.423 21.5184H115.152L115.441 18.933V8.93494H111.818L111.837 24.1062" fill="white"/>
<path d="M145.005 19.9706C145.005 19.1749 144.838 18.5316 144.501 18.0406C144.167 17.5497 143.619 17.1796 142.857 16.9281C142.097 16.6766 141.045 16.5097 139.704 16.4323V16.1542C140.982 16.0889 141.974 15.9196 142.683 15.6463C143.391 15.3754 143.899 14.9981 144.2 14.512C144.504 14.0283 144.654 13.3947 144.654 12.6135C144.654 11.6195 144.421 10.8576 143.958 10.3256C143.494 9.79593 142.826 9.43073 141.956 9.23242C141.085 9.0341 139.942 8.93494 138.523 8.93494H131.829V24.1062H138.85C140.306 24.1062 141.48 23.9781 142.37 23.7193C143.259 23.4605 143.92 23.0372 144.353 22.4471C144.786 21.857 145 21.0323 145 19.9706H145.005ZM135.565 11.4018H138.118C138.711 11.4018 139.203 11.4647 139.589 11.5905C139.974 11.7162 140.269 11.9291 140.469 12.2265C140.669 12.524 140.767 12.9182 140.767 13.4092C140.767 14.0839 140.556 14.5652 140.13 14.8506C139.704 15.136 139.033 15.2787 138.118 15.2787H135.565V11.4018ZM140.894 20.4881C140.694 20.7929 140.382 21.013 139.956 21.1436C139.53 21.2766 138.97 21.3419 138.273 21.3419H135.584V17.3465H138.118C139.174 17.3465 139.953 17.4892 140.45 17.7746C140.946 18.06 141.193 18.5606 141.193 19.2765C141.193 19.7795 141.094 20.1834 140.894 20.4906V20.4881Z" fill="white"/>
<path d="M186.007 24.1062H191.134L195.042 15.1626L196.336 11.4429H196.609L196.376 13.3221V24.1062H200V8.93494H194.694L190.456 18.8944L189.47 21.5184H189.2L189.489 18.933V8.93494H185.866L185.885 24.1062" fill="white"/>
<path d="M192.934 7.02686C193.889 7.02686 194.637 6.78742 195.178 6.31098C195.72 5.83453 195.997 5.1114 196.011 4.144L194.889 3.98438C194.889 4.36892 194.713 4.67365 194.357 4.89857C194.002 5.12349 193.529 5.23717 192.936 5.23717C192.343 5.23717 191.908 5.12833 191.553 4.90825C191.197 4.69058 191.014 4.38101 191.002 3.98438L189.861 4.144C189.913 5.09931 190.2 5.81761 190.722 6.30131C191.244 6.78501 191.983 7.02686 192.936 7.02686H192.934Z" fill="white"/>
<path d="M99.0156 34.4913C102.432 34.2979 102.133 37.8652 102.263 39.1397L106.197 38.7431C106.107 37.3911 105.82 36.2617 105.336 35.3523C104.853 34.4454 103.957 33.7513 103.009 33.2748C102.06 32.7984 100.846 32.559 99.3615 32.559C97.7756 32.559 96.1592 32.8443 95.1404 33.4127C94.1215 33.9835 93.2533 34.8444 92.771 35.9981C92.2863 37.1517 91.9521 38.6101 91.9521 40.3732C91.9521 42.1362 92.2886 43.5946 92.771 44.7482C93.2533 45.9019 94.1215 46.7628 95.1404 47.3336C96.1592 47.9044 97.7756 48.1898 99.3615 48.1898C100.844 48.1898 102.06 47.9503 103.009 47.4739C103.957 46.9974 104.853 46.3033 105.336 45.3964C105.82 44.4894 106.107 43.3576 106.197 42.0056L102.263 41.609C102.133 42.8811 102.432 46.4509 99.0156 46.255C96.2839 46.1002 96.2274 41.3454 96.2274 40.3756C96.2274 39.4058 96.2862 34.651 99.0156 34.4962V34.4913Z" fill="white"/>
<path d="M118.794 40.9077C118.62 40.736 118.387 40.6102 118.098 40.5304C117.808 40.4506 117.321 40.366 116.637 40.2716V40.0129C117.307 39.9064 117.789 39.8145 118.088 39.7347C118.385 39.6549 118.629 39.5316 118.822 39.3671C119.015 39.2026 119.234 38.9197 119.479 38.523L123.251 32.796H119.168L115.086 39.0406H114.06V32.796H110.229V47.9673H114.06V41.3454H115.067L119.401 47.9673H123.636L119.439 41.8025C119.18 41.3793 118.966 41.0794 118.792 40.9077H118.794Z" fill="white"/>
<path d="M129.044 32.796L129.026 40.5111C129.026 43.1376 128.633 44.7072 126.433 44.7072V48.1463C130.877 48.1463 132.186 45.0579 132.186 41.0673V35.4612H136.835L136.781 47.9673H140.593V32.796H129.044Z" fill="white"/>
<path d="M176.593 32.796H165.237V39.4759C165.237 40.4578 165.2 41.2922 165.122 41.9815C165.044 42.6708 164.887 43.2996 164.649 43.8704C164.423 44.4073 164.096 44.8837 163.673 45.3021H162.068L162.164 50.5309H165.028V47.9649H175.32V50.5309H178.202L178.298 45.3021H176.595V32.796H176.593ZM166.162 45.3021C166.4 45.1377 167.957 44.3783 167.957 41.1471V35.4588H172.818V45.3021H166.162Z" fill="white"/>
<path d="M158.783 8.93494V14.6813H153.562V8.93494H149.731V24.1062H153.562V17.3465H158.783V24.1062H162.614V8.93494H158.783Z" fill="white"/>
<path d="M180.853 12.089C180.333 10.9257 179.538 10.0333 178.465 9.46496C177.392 8.89661 175.95 8.61365 174.241 8.61365C172.533 8.61365 171.091 8.89661 170.018 9.46496C168.945 10.0333 168.15 10.9233 167.63 12.089C167.11 13.2523 166.74 14.73 166.74 16.5222C166.74 18.3143 167.11 19.792 167.63 20.9553C168.15 22.1186 168.945 23.011 170.018 23.5794C171.088 24.1477 172.533 24.4307 174.241 24.4307C175.95 24.4307 177.392 24.1477 178.465 23.5794C179.538 23.011 180.333 22.121 180.853 20.9553C181.373 19.792 181.743 18.3143 181.743 16.5222C181.743 14.73 181.373 13.2523 180.853 12.089ZM174.244 22.9264C173.105 22.9264 170.987 22.5515 170.987 16.5222C170.987 10.4928 173.107 10.118 174.244 10.118C175.38 10.118 177.5 10.4928 177.5 16.5222C177.5 22.5515 175.38 22.9264 174.244 22.9264Z" fill="white"/>
<path d="M155.11 47.9648H159.037L154.975 32.7935H148.554L144.493 47.9648H148.42L149.267 44.5837H154.265L155.112 47.9648H155.11ZM149.703 42.8351L151.665 35.0016H151.858L153.82 42.8351H149.7H149.703Z" fill="white"/>
<path d="M92.8613 8.93494V24.1062H96.8425V11.6001H102.066V24.1062H106.047V8.93494H92.8613Z" fill="white"/>
</svg>
