<svg width="60" height="47" viewBox="0 0 60 47" fill="none"
	xmlns="http://www.w3.org/2000/svg">
	<path d="M15.42 0.22998L0 13.5966V46.5034H44.6739L60 33.218V0.22998H15.42ZM52.4866 18.5787H43.7322V10.6559C43.7322 8.23822 45.6918 6.27869 48.1094 6.27869C50.5271 6.27869 52.4866 8.23822 52.4866 10.6559V18.5787Z" fill="#E74011"/>
	<path d="M14.036 31.3283H15.7866L17.1214 28.3565L17.564 27.1212H17.6565L17.5774 27.7452V31.3283H18.8148V26.2876H17.0021L15.5558 29.5968L15.2191 30.4685H15.1259L15.2254 29.6095V26.2876H13.9873L13.9944 31.3283" fill="white"/>
	<path d="M25.3225 29.9547C25.3225 29.6907 25.2654 29.4768 25.151 29.3137C25.0367 29.1507 24.8496 29.0271 24.5898 28.9438C24.3301 28.8605 23.9708 28.8048 23.5127 28.7787V28.6862C23.9489 28.6643 24.2877 28.6078 24.5298 28.5175C24.7719 28.4271 24.9449 28.3015 25.0487 28.1405C25.1517 27.9796 25.2039 27.7692 25.2039 27.5095C25.2039 27.1791 25.1249 26.9257 24.9661 26.7499C24.8072 26.5742 24.5792 26.4528 24.2821 26.3864C23.9849 26.3201 23.5938 26.2876 23.1096 26.2876H20.8232V31.3283H23.2211C23.7188 31.3283 24.1197 31.2852 24.4232 31.1991C24.7275 31.113 24.9527 30.9725 25.1002 30.7763C25.2477 30.5808 25.3211 30.3062 25.3211 29.954L25.3225 29.9547ZM22.0988 27.1071H22.9705C23.1731 27.1071 23.3404 27.1283 23.4724 27.17C23.6044 27.2116 23.7047 27.2822 23.7731 27.381C23.8416 27.4798 23.8755 27.6111 23.8755 27.7742C23.8755 27.9987 23.8028 28.1589 23.6574 28.2535C23.5119 28.3481 23.2825 28.3954 22.9698 28.3954H22.0981V27.1071H22.0988ZM23.9185 30.1262C23.8501 30.2278 23.7435 30.3005 23.5981 30.3443C23.4527 30.3881 23.2614 30.4107 23.0235 30.4107H22.1051V29.0829H22.9705C23.3319 29.0829 23.5974 29.1302 23.7668 29.2248C23.9362 29.3194 24.0209 29.4859 24.0209 29.7238C24.0209 29.8911 23.987 30.0252 23.9185 30.1269V30.1262Z" fill="white"/>
	<path d="M39.3263 31.3283H41.0769L42.4117 28.3565L42.8543 27.1212H42.9468L42.8677 27.7452V31.3283H44.1051V26.2876H42.2931L40.8461 29.5968L40.5094 30.4685H40.4169L40.5157 29.6095V26.2876H39.2783L39.2847 31.3283" fill="white"/>
	<path d="M41.692 25.6536C42.0181 25.6536 42.2736 25.5746 42.4585 25.4158C42.6435 25.2569 42.7381 25.0169 42.7423 24.6958L42.359 24.6428C42.359 24.7706 42.2983 24.8715 42.1776 24.9471C42.0569 25.0219 41.8945 25.0593 41.692 25.0593C41.4894 25.0593 41.3404 25.0233 41.2197 24.9499C41.0983 24.8772 41.0355 24.7748 41.0313 24.6428L40.6416 24.6958C40.6592 25.0127 40.7574 25.252 40.9352 25.4129C41.1138 25.5739 41.3658 25.6543 41.692 25.6543V25.6536Z" fill="white"/>
	<path d="M9.61485 34.7786C10.7817 34.7143 10.6793 35.9002 10.7238 36.3231L12.0671 36.1911C12.036 35.7421 11.9379 35.3666 11.7727 35.0645C11.6076 34.7631 11.3012 34.5329 10.9779 34.3741C10.6539 34.2153 10.2389 34.1362 9.73274 34.1362C9.19133 34.1362 8.63933 34.2308 8.29133 34.42C7.94333 34.6092 7.64685 34.8958 7.48168 35.2791C7.3165 35.6623 7.20215 36.1466 7.20215 36.7325C7.20215 37.3183 7.3165 37.8026 7.48168 38.1859C7.64685 38.5692 7.94333 38.8551 8.29133 39.0449C8.63933 39.2341 9.19133 39.3287 9.73274 39.3287C10.2389 39.3287 10.6546 39.2496 10.9779 39.0908C11.3019 38.932 11.6076 38.7019 11.7727 38.4005C11.9379 38.0983 12.036 37.7235 12.0671 37.2739L10.7238 37.1419C10.68 37.5647 10.7817 38.7506 9.61485 38.6856C8.68238 38.6341 8.66262 37.0536 8.66262 36.7318C8.66262 36.4099 8.68238 34.8294 9.61485 34.7779V34.7786Z" fill="white"/>
	<path d="M16.3701 36.9111C16.3108 36.8539 16.2317 36.8122 16.1322 36.7854C16.0333 36.7593 15.8668 36.7304 15.6331 36.6993V36.6132C15.8618 36.5779 16.027 36.5468 16.1286 36.5207C16.2296 36.4939 16.3136 36.4537 16.3799 36.3986C16.4463 36.3435 16.5204 36.2497 16.6044 36.1177L17.8926 34.2146H16.4985L15.1044 36.2892H14.7543V34.2146H13.4463V39.2553H14.7543V37.0551H15.0981L16.5776 39.2553H18.0246L16.591 37.2075C16.5028 37.0664 16.4293 36.9675 16.3701 36.9104V36.9111Z" fill="white"/>
	<path d="M19.871 34.2153L19.8647 36.7791C19.8647 37.6516 19.7306 38.1732 18.9795 38.1732V39.316C20.4971 39.316 20.9447 38.2897 20.9447 36.964V35.1012H22.5322L22.5138 39.2567H23.8155V34.216H19.871V34.2153Z" fill="white"/>
	<path d="M36.1104 34.2153H32.2322V36.4353C32.2322 36.7615 32.2188 37.0389 32.1927 37.2676C32.1666 37.4963 32.1122 37.7059 32.0311 37.8951C31.9541 38.0737 31.8419 38.2318 31.6972 38.3709H31.1494L31.1826 40.108H32.1602V39.256H35.6748V40.108H36.6588L36.692 38.3709H36.1104V34.2153ZM32.5478 38.3709C32.6289 38.3165 33.1612 38.0638 33.1612 36.9902V35.1005H34.8214V38.3709H32.5478Z" fill="white"/>
	<path d="M30.029 26.2876V28.197H28.2445V26.2876H26.9365V31.3283H28.2445V29.0822H30.029V31.3283H31.337V26.2876H30.029Z" fill="white"/>
	<path d="M37.5654 27.3352C37.3882 26.9484 37.1165 26.6527 36.7501 26.4635C36.3838 26.275 35.8911 26.1804 35.308 26.1804C34.725 26.1804 34.2315 26.275 33.8659 26.4635C33.4995 26.6527 33.2278 26.9484 33.0506 27.3352C32.8734 27.7214 32.7471 28.2127 32.7471 28.8077C32.7471 29.4028 32.8734 29.8941 33.0506 30.2802C33.2278 30.667 33.4995 30.9628 33.8659 31.1519C34.2322 31.3411 34.725 31.435 35.308 31.435C35.8911 31.435 36.3845 31.3404 36.7501 31.1519C37.1165 30.9628 37.3882 30.667 37.5654 30.2802C37.7426 29.8934 37.869 29.4028 37.869 28.8077C37.869 28.2127 37.7426 27.7214 37.5654 27.3352ZM35.3073 30.9359C34.9191 30.9359 34.1948 30.811 34.1948 28.8077C34.1948 26.8044 34.9184 26.6795 35.3073 26.6795C35.6962 26.6795 36.4198 26.8044 36.4198 28.8077C36.4198 30.811 35.6962 30.9359 35.3073 30.9359Z" fill="white"/>
	<path d="M28.7736 39.2568H30.1148L28.7277 34.2161H26.5345L25.1475 39.2568H26.4886L26.778 38.1337H28.4849L28.7743 39.2568H28.7736ZM26.927 37.5521L27.5976 34.9495H27.6639L28.3345 37.5521H26.927Z" fill="white"/>
	<path d="M7.51367 26.2876V31.3283H8.87391V27.1728H10.6577V31.3283H12.0172V26.2876H7.51367Z" fill="white"/>
</svg>
