<svg xmlns="http://www.w3.org/2000/svg">
	<symbol id="basket" viewBox="0 0 24 24">
		<path d="M3.87289 17.0194L2.66933 9.83981C2.48735 8.75428 2.39637 8.21152 2.68773 7.85576C2.9791 7.5 3.51461 7.5 4.58564 7.5H19.4144C20.4854 7.5 21.0209 7.5 21.3123 7.85576C21.6036 8.21152 21.5126 8.75428 21.3307 9.83981L20.1271 17.0194C19.7282 19.3991 19.5287 20.5889 18.7143 21.2945C17.9 22 16.726 22 14.3782 22H9.62182C7.27396 22 6.10003 22 5.28565 21.2945C4.47127 20.5889 4.27181 19.3991 3.87289 17.0194Z" fill="transparent"/>
		<path d="M17.5 7.5C17.5 4.46243 15.0376 2 12 2C8.96243 2 6.5 4.46243 6.5 7.5" fill="transparent"/>
	</symbol>
	<symbol id="cancel" viewBox="0 0 24 24">
		<path d="M19 5L5 19M5 5L19 19" stroke-linecap="round" stroke-linejoin="round" fill="transparent"/>
	</symbol>
	<symbol id="favorite" viewBox="0 0 24 24">
		<path d="M19.4626 3.99415C16.7809 2.34923 14.4404 3.01211 13.0344 4.06801C12.4578 4.50096 12.1696 4.71743 12 4.71743C11.8304 4.71743 11.5422 4.50096 10.9656 4.06801C9.55962 3.01211 7.21909 2.34923 4.53744 3.99415C1.01807 6.15294 0.221721 13.2749 8.33953 19.2834C9.88572 20.4278 10.6588 21 12 21C13.3412 21 14.1143 20.4278 15.6605 19.2834C23.7783 13.2749 22.9819 6.15294 19.4626 3.99415Z" stroke-linecap="round" fill="transparent"/>
	</symbol>
	<symbol id="hamburger" viewBox="0 0 24 24">
		<path d="M7 5L17 5" stroke-linecap="round" stroke-linejoin="round" fill="transparent"/>
		<path d="M4 12L20 12" stroke-linecap="round" stroke-linejoin="round" fill="transparent"/>
		<path d="M7 19L17 19" stroke-linecap="round" stroke-linejoin="round" fill="transparent"/>
	</symbol>
	<symbol id="login" viewBox="0 0 24 24">
		<path d="M13 3L13.6626 3.23384C16.2413 4.144 17.5307 4.59908 18.2654 5.63742C19 6.67576 19 8.0431 19 10.7778V13.2222C19 15.9569 19 17.3242 18.2654 18.3626C17.5307 19.4009 16.2413 19.856 13.6626 20.7662L13 21" stroke-linecap="round" fill="transparent"/>
		<path d="M3 12L13 12M3 12C3 11.2998 4.9943 9.99153 5.5 9.5M3 12C3 12.7002 4.9943 14.0085 5.5 14.5" stroke-linecap="round" stroke-linejoin="round" fill="transparent"/>
	</symbol>
	<symbol id="orders" viewBox="0 0 24 24">
		<path d="M12 22C11.1818 22 10.4002 21.6698 8.83693 21.0095C4.94564 19.3657 3 18.5438 3 17.1613C3 16.7742 3 10.0645 3 7M12 22C12.8182 22 13.5998 21.6698 15.1631 21.0095C19.0544 19.3657 21 18.5438 21 17.1613V7M12 22L12 11.3548" stroke-linecap="round" stroke-linejoin="round" fill="transparent"/>
		<path d="M8.32592 9.69138L5.40472 8.27785C3.80157 7.5021 3 7.11423 3 6.5C3 5.88577 3.80157 5.4979 5.40472 4.72215L8.32592 3.30862C10.1288 2.43621 11.0303 2 12 2C12.9697 2 13.8712 2.4362 15.6741 3.30862L18.5953 4.72215C20.1984 5.4979 21 5.88577 21 6.5C21 7.11423 20.1984 7.5021 18.5953 8.27785L15.6741 9.69138C13.8712 10.5638 12.9697 11 12 11C11.0303 11 10.1288 10.5638 8.32592 9.69138Z" stroke-linecap="round" stroke-linejoin="round" fill="transparent"/>
		<path d="M6 12L8 13" stroke-linecap="round" stroke-linejoin="round" fill="transparent"/>
		<path d="M17 4L7 9" stroke-linecap="round" stroke-linejoin="round" fill="transparent"/>
	</symbol>
	<symbol id="instagram" viewBox="0 0 30 30">
		<path d="M15.0033 7.30838C10.7468 7.30838 7.31344 10.7425 7.31344 15C7.31344 19.2575 10.7468 22.6916 15.0033 22.6916C19.2599 22.6916 22.6933 19.2575 22.6933 15C22.6933 10.7425 19.2599 7.30838 15.0033 7.30838ZM15.0033 20.0006C12.2527 20.0006 10.0039 17.758 10.0039 15C10.0039 12.242 12.246 9.99944 15.0033 9.99944C17.7607 9.99944 20.0028 12.242 20.0028 15C20.0028 17.758 17.754 20.0006 15.0033 20.0006ZM24.8015 6.99375C24.8015 7.99119 23.9983 8.78779 23.0078 8.78779C22.0106 8.78779 21.2142 7.98449 21.2142 6.99375C21.2142 6.00301 22.0173 5.19971 23.0078 5.19971C23.9983 5.19971 24.8015 6.00301 24.8015 6.99375ZM29.8946 8.81457C29.7808 6.41136 29.232 4.28261 27.4718 2.52873C25.7184 0.774852 23.5901 0.225929 21.1874 0.105433C18.7111 -0.0351445 11.2889 -0.0351445 8.81261 0.105433C6.41662 0.219235 4.28834 0.768158 2.52817 2.52203C0.767987 4.27591 0.225878 6.40466 0.10541 8.80788C-0.0351366 11.2847 -0.0351366 18.7086 0.10541 21.1854C0.219186 23.5886 0.767987 25.7174 2.52817 27.4713C4.28834 29.2251 6.40993 29.7741 8.81261 29.8946C11.2889 30.0351 18.7111 30.0351 21.1874 29.8946C23.5901 29.7808 25.7184 29.2318 27.4718 27.4713C29.2253 25.7174 29.7741 23.5886 29.8946 21.1854C30.0351 18.7086 30.0351 11.2914 29.8946 8.81457ZM26.6955 23.843C26.1735 25.1551 25.1629 26.1659 23.8444 26.6947C21.8701 27.478 17.1852 27.2972 15.0033 27.2972C12.8215 27.2972 8.12995 27.4713 6.1623 26.6947C4.85053 26.1726 3.83993 25.1618 3.31121 23.843C2.52817 21.8682 2.70887 17.1823 2.70887 15C2.70887 12.8177 2.53486 8.12507 3.31121 6.15698C3.83324 4.84492 4.84384 3.8341 6.1623 3.30525C8.13664 2.52203 12.8215 2.70278 15.0033 2.70278C17.1852 2.70278 21.8767 2.52873 23.8444 3.30525C25.1562 3.8274 26.1668 4.83822 26.6955 6.15698C27.4785 8.13176 27.2978 12.8177 27.2978 15C27.2978 17.1823 27.4785 21.8749 26.6955 23.843Z"/>
	</symbol>
	<symbol id="telegram" viewBox="0 0 30 30">
		<path d="M15 0C6.71371 0 0 6.71371 0 15C0 23.2863 6.71371 30 15 30C23.2863 30 30 23.2863 30 15C30 6.71371 23.2863 0 15 0ZM21.9556 10.2036C21.7319 12.5746 20.752 18.3327 20.256 20.9879C20.0444 22.1129 19.6331 22.4879 19.2339 22.5242C18.3629 22.6028 17.7036 21.9496 16.8569 21.3931C15.5383 20.5282 14.7883 19.9899 13.5121 19.1431C12.0302 18.1694 12.9919 17.631 13.8327 16.754C14.0565 16.5242 17.8911 13.0343 17.9637 12.7198C17.9758 12.6774 17.9819 12.5323 17.8911 12.4536C17.8004 12.375 17.6734 12.4052 17.5827 12.4234C17.4496 12.4516 15.3407 13.8448 11.256 16.6028C10.6593 17.0141 10.1169 17.2137 9.62903 17.2016C9.09073 17.1895 8.0625 16.8992 7.29435 16.6512C6.35685 16.3488 5.60685 16.1855 5.67339 15.6653C5.70565 15.3952 6.07863 15.119 6.79234 14.8367C11.1633 12.9335 14.0786 11.6774 15.5383 11.0685C19.7056 9.33871 20.5706 9.03629 21.1331 9.02419C21.2601 9.02419 21.5323 9.05444 21.7137 9.1996C21.8321 9.30371 21.9076 9.44816 21.9254 9.60484C21.9581 9.80265 21.9683 10.0035 21.9556 10.2036Z"/>
	</symbol>
	<symbol id="untappd" viewBox="0 0 30 30">
		<path d="M19.4738 4.91967C15.5712 12.7495 15.3364 12.3778 15.175 13.3901L14.9207 14.9943C14.8278 15.5811 14.5979 16.1435 14.2507 16.6277L6.96864 26.7903C6.59696 27.3087 5.97097 27.5826 5.33519 27.5043C3.36429 27.2598 1.53032 25.9296 0.674475 24.1543C0.395712 23.5772 0.454399 22.8925 0.826082 22.3741L8.10815 12.2066C8.45538 11.7225 8.9102 11.3263 9.43838 11.0476L10.8713 10.2895C11.7761 9.81025 11.3457 9.70755 17.5029 3.49652C17.5518 3.26177 17.5518 3.13951 17.679 3.10527C17.8257 3.07104 18.0018 3.05637 17.9871 2.88031L17.9675 2.65534C17.9578 2.56242 18.0311 2.47928 18.124 2.47928C18.3441 2.47439 18.7696 2.53797 19.376 2.96834C19.9776 3.4036 20.1781 3.78995 20.2417 4.00025C20.271 4.08828 20.2123 4.1812 20.1243 4.20565L19.9042 4.25945C19.7379 4.30346 19.7819 4.47463 19.7917 4.62135C19.7966 4.75829 19.6792 4.79741 19.4738 4.91967ZM11.1012 4.25945C11.2675 4.30346 11.2234 4.47463 11.2137 4.62135C11.2039 4.75339 11.3164 4.79252 11.5267 4.91478C11.913 5.69238 12.2749 6.40641 12.6124 7.06664C12.6466 7.13021 12.7248 7.13999 12.7738 7.09109C13.3215 6.50422 13.9768 5.80976 14.7544 5.0077C14.818 4.93924 14.8229 4.83653 14.7593 4.76807C14.3681 4.36704 13.9524 3.94156 13.5073 3.49163C13.4584 3.26177 13.4584 3.13461 13.3313 3.10038C13.1846 3.06126 13.0085 3.05148 13.0232 2.87541C13.0378 2.71403 13.0916 2.47928 12.8862 2.47439C12.6662 2.4695 12.2407 2.52818 11.6342 2.96344C11.0327 3.39871 10.8322 3.78506 10.7686 3.99536C10.7001 4.20076 10.9447 4.22032 11.1012 4.25945ZM30.1695 22.3692L22.8923 12.2017C22.2468 11.297 21.5915 11.0573 20.1341 10.2895C19.5863 10.001 19.4396 9.75645 18.6424 8.87615C18.5935 8.82235 18.5006 8.83213 18.4664 8.9006C16.202 13.2434 16.1629 12.95 16.07 13.5369C15.9869 14.0602 16.0064 14.515 16.0847 14.9943C16.1776 15.5811 16.4074 16.1435 16.7547 16.6277L24.0367 26.7952C24.4084 27.3136 25.0246 27.5875 25.6555 27.5141C27.6264 27.2745 29.4702 25.9491 30.3358 24.1592C30.5999 23.5772 30.5461 22.8925 30.1695 22.3692Z"/>
	</symbol>
	<symbol id="vk" viewBox="0 0 30 30">
		<path d="M2.85937 2.10937C0.75 4.21875 0.75 7.61384 0.75 14.3973V15.6027C0.75 22.3862 0.75 25.7812 2.85937 27.8906C4.96875 30 8.36384 30 15.1473 30H16.3527C23.1362 30 26.5312 30 28.6406 27.8906C30.75 25.7812 30.75 22.3862 30.75 15.6027V14.3973C30.75 7.61384 30.75 4.21875 28.6406 2.10937C26.5312 0 23.1362 0 16.3527 0H15.1473C8.36384 0 4.96875 0 2.85937 2.10937ZM5.8125 9.12723H9.23437C9.34821 14.8527 11.8728 17.2768 13.875 17.7723V9.12723H17.1027V14.0625C19.0781 13.8482 21.1473 11.5982 21.8504 9.12723H25.0781C24.8103 10.4062 24.2879 11.625 23.5313 12.6964C22.7746 13.7679 21.8103 14.6719 20.6853 15.3482C21.9375 15.971 23.0424 16.8482 23.9263 17.933C24.817 19.0112 25.4598 20.2634 25.8281 21.6094H22.2723C21.9509 20.4442 21.2812 19.3929 20.3638 18.6027C19.4397 17.8058 18.308 17.3036 17.1027 17.1496V21.6094H16.7143C9.87723 21.6094 5.97321 16.9219 5.8125 9.12723Z"/>
	</symbol>
	<symbol id="youtube" viewBox="0 0 30 30">
		<path d="M29.6239 7.75558C29.2778 6.45386 28.2617 5.43225 26.971 5.08623C24.6312 4.45459 15.25 4.45459 15.25 4.45459C15.25 4.45459 5.86882 4.45459 3.52902 5.08623C2.23828 5.43225 1.22217 6.45386 0.876144 7.75558C0.25 10.1119 0.25 15.0221 0.25 15.0221C0.25 15.0221 0.25 19.9324 0.876144 22.2887C1.22217 23.5904 2.23828 24.5681 3.52902 24.9141C5.86882 25.5458 15.25 25.5458 15.25 25.5458C15.25 25.5458 24.6312 25.5458 26.971 24.9141C28.2617 24.5681 29.2778 23.5849 29.6239 22.2887C30.25 19.9324 30.25 15.0221 30.25 15.0221C30.25 15.0221 30.25 10.1119 29.6239 7.75558ZM12.1852 19.4821V10.5622L20.023 15.0221L12.1852 19.4821Z"/>
	</symbol>
	<symbol id="arrow-sharp" viewBox="0 0 24 24">
		<path d="M1 6L11.2628 17.1958C11.6076 17.572 11.78 17.7601 12 17.7601C12.22 17.7601 12.3924 17.572 12.7372 17.1958L23 6" stroke-width="1.5" stroke-linecap="round" stroke-linejoin="round" fill="transparent"/>
	</symbol>
</svg>
