<svg width="30" height="30" viewBox="0 0 30 30" fill="none"
	xmlns="http://www.w3.org/2000/svg">
	<path d="M19.4738 4.91967C15.5712 12.7495 15.3364 12.3778 15.175 13.3901L14.9207 14.9943C14.8278 15.5811 14.5979 16.1435 14.2507 16.6277L6.96864 26.7903C6.59696 27.3087 5.97097 27.5826 5.33519 27.5043C3.36429 27.2598 1.53032 25.9296 0.674475 24.1543C0.395712 23.5772 0.454399 22.8925 0.826082 22.3741L8.10815 12.2066C8.45538 11.7225 8.9102 11.3263 9.43838 11.0476L10.8713 10.2895C11.7761 9.81025 11.3457 9.70755 17.5029 3.49652C17.5518 3.26177 17.5518 3.13951 17.679 3.10527C17.8257 3.07104 18.0018 3.05637 17.9871 2.88031L17.9675 2.65534C17.9578 2.56242 18.0311 2.47928 18.124 2.47928C18.3441 2.47439 18.7696 2.53797 19.376 2.96834C19.9776 3.4036 20.1781 3.78995 20.2417 4.00025C20.271 4.08828 20.2123 4.1812 20.1243 4.20565L19.9042 4.25945C19.7379 4.30346 19.7819 4.47463 19.7917 4.62135C19.7966 4.75829 19.6792 4.79741 19.4738 4.91967ZM11.1012 4.25945C11.2675 4.30346 11.2234 4.47463 11.2137 4.62135C11.2039 4.75339 11.3164 4.79252 11.5267 4.91478C11.913 5.69238 12.2749 6.40641 12.6124 7.06664C12.6466 7.13021 12.7248 7.13999 12.7738 7.09109C13.3215 6.50422 13.9768 5.80976 14.7544 5.0077C14.818 4.93924 14.8229 4.83653 14.7593 4.76807C14.3681 4.36704 13.9524 3.94156 13.5073 3.49163C13.4584 3.26177 13.4584 3.13461 13.3313 3.10038C13.1846 3.06126 13.0085 3.05148 13.0232 2.87541C13.0378 2.71403 13.0916 2.47928 12.8862 2.47439C12.6662 2.4695 12.2407 2.52818 11.6342 2.96344C11.0327 3.39871 10.8322 3.78506 10.7686 3.99536C10.7001 4.20076 10.9447 4.22032 11.1012 4.25945ZM30.1695 22.3692L22.8923 12.2017C22.2468 11.297 21.5915 11.0573 20.1341 10.2895C19.5863 10.001 19.4396 9.75645 18.6424 8.87615C18.5935 8.82235 18.5006 8.83213 18.4664 8.9006C16.202 13.2434 16.1629 12.95 16.07 13.5369C15.9869 14.0602 16.0064 14.515 16.0847 14.9943C16.1776 15.5811 16.4074 16.1435 16.7547 16.6277L24.0367 26.7952C24.4084 27.3136 25.0246 27.5875 25.6555 27.5141C27.6264 27.2745 29.4702 25.9491 30.3358 24.1592C30.5999 23.5772 30.5461 22.8925 30.1695 22.3692Z" fill="white"/>
</svg>
