<svg width="30" height="30" viewBox="0 0 30 30" fill="none"
	xmlns="http://www.w3.org/2000/svg">
	<path d="M2.85937 2.10937C0.75 4.21875 0.75 7.61384 0.75 14.3973V15.6027C0.75 22.3862 0.75 25.7812 2.85937 27.8906C4.96875 30 8.36384 30 15.1473 30H16.3527C23.1362 30 26.5312 30 28.6406 27.8906C30.75 25.7812 30.75 22.3862 30.75 15.6027V14.3973C30.75 7.61384 30.75 4.21875 28.6406 2.10937C26.5312 0 23.1362 0 16.3527 0H15.1473C8.36384 0 4.96875 0 2.85937 2.10937ZM5.8125 9.12723H9.23437C9.34821 14.8527 11.8728 17.2768 13.875 17.7723V9.12723H17.1027V14.0625C19.0781 13.8482 21.1473 11.5982 21.8504 9.12723H25.0781C24.8103 10.4062 24.2879 11.625 23.5313 12.6964C22.7746 13.7679 21.8103 14.6719 20.6853 15.3482C21.9375 15.971 23.0424 16.8482 23.9263 17.933C24.817 19.0112 25.4598 20.2634 25.8281 21.6094H22.2723C21.9509 20.4442 21.2812 19.3929 20.3638 18.6027C19.4397 17.8058 18.308 17.3036 17.1027 17.1496V21.6094H16.7143C9.87723 21.6094 5.97321 16.9219 5.8125 9.12723Z" fill="white"/>
</svg>
