<svg width="30" height="30" viewBox="0 0 30 30" fill="none"
	xmlns="http://www.w3.org/2000/svg">
	<path d="M29.6239 7.75558C29.2778 6.45386 28.2617 5.43225 26.971 5.08623C24.6312 4.45459 15.25 4.45459 15.25 4.45459C15.25 4.45459 5.86882 4.45459 3.52902 5.08623C2.23828 5.43225 1.22217 6.45386 0.876144 7.75558C0.25 10.1119 0.25 15.0221 0.25 15.0221C0.25 15.0221 0.25 19.9324 0.876144 22.2887C1.22217 23.5904 2.23828 24.5681 3.52902 24.9141C5.86882 25.5458 15.25 25.5458 15.25 25.5458C15.25 25.5458 24.6312 25.5458 26.971 24.9141C28.2617 24.5681 29.2778 23.5849 29.6239 22.2887C30.25 19.9324 30.25 15.0221 30.25 15.0221C30.25 15.0221 30.25 10.1119 29.6239 7.75558ZM12.1852 19.4821V10.5622L20.023 15.0221L12.1852 19.4821Z" fill="white"/>
</svg>
